<?xml version="1.0" encoding="UTF-8"?>
<svg width="1920" height="600" viewBox="0 0 1920 600" xmlns="http://www.w3.org/2000/svg">
    <rect width="1920" height="600" fill="#b3d8fd"/>
    <path d="M0 500 L200 400 L400 500 L600 350 L800 500 L1000 300 L1200 500 L1400 350 L1600 500 L1800 400 L1920 500 L1920 600 L0 600 Z" fill="#e0f2fe"/>
    <path d="M0 550 L300 450 L600 550 L900 400 L1200 550 L1500 450 L1800 550 L1920 500 L1920 600 L0 600 Z" fill="#90cdf4"/>
    <path d="M0 600 L400 500 L800 600 L1200 500 L1600 600 L1920 550 L1920 600 L0 600 Z" fill="#4299e1"/>
</svg> 